<?xml version="1.0" standalone="no"?><!DOCTYPE svg PUBLIC "-//W3C//DTD SVG 1.1//EN" "http://www.w3.org/Graphics/SVG/1.1/DTD/svg11.dtd"><svg t="1655800011161" class="icon" viewBox="0 0 1215 1024" version="1.1" xmlns="http://www.w3.org/2000/svg" p-id="840" xmlns:xlink="http://www.w3.org/1999/xlink" width="237.3046875" height="200"><defs><style type="text/css">@font-face { font-family: feedback-iconfont; src: url("//at.alicdn.com/t/font_1031158_u69w8yhxdu.woff2?t=1630033759944") format("woff2"), url("//at.alicdn.com/t/font_1031158_u69w8yhxdu.woff?t=1630033759944") format("woff"), url("//at.alicdn.com/t/font_1031158_u69w8yhxdu.ttf?t=1630033759944") format("truetype"); }
</style></defs><path d="M563.090887 0h-11.906367 27.775705-15.869338zM79.023715 551.498764c0-158.702106 79.355417-305.515301 206.327576-396.768357 15.869338-11.906368 19.832308-31.738675 7.934669-47.616742C281.379593 87.290086 257.575586 83.318387 237.734549 95.233484 94.893053 198.384179 7.602966 368.992652 7.602966 551.498764c0 182.52357 87.290086 349.160344 234.103282 456.291467 19.832308 11.906368 43.645043 7.943398 55.542682-11.897639 7.943398-15.878067 3.971699-35.710374-7.934669-47.616742-130.935129-91.261785-210.281817-238.066252-210.281817-396.777086z m749.90913-440.4134c-7.943398 15.869338-3.971699 35.701645 7.925939 47.608013 126.972159 91.261785 206.327577 238.066252 206.327577 396.777086s-79.355417 305.515301-206.327577 396.777086c-15.869338 11.897639-19.832308 31.738675-7.934668 47.608013 11.906368 19.841037 35.710374 23.804006 55.55141 11.906368 146.804467-103.159424 234.094553-273.776626 234.094553-456.291467 0-182.52357-87.290086-349.160344-234.094553-456.291467-19.841037-11.897639-43.645043-3.96297-55.55141 11.906368z m-130.93513 150.776165l-35.719103 63.477351L563.090887 488.038871c-39.682073 0-75.392447 31.738675-75.392447 75.383719 0 39.682073 31.747404 75.383718 75.392447 75.383718 39.673344 0 75.383718-31.738675 75.383719-75.383718 0-11.906368-3.96297-23.804006-7.934669-35.701645L729.74512 365.020953c87.290086 71.420748 119.028761 190.44951 79.346688 293.608934-39.673344 103.159424-146.804467 170.617202-261.870258 162.682533-115.057062-7.943398-210.281817-87.290086-234.094553-198.392908-23.804006-99.187725 11.906368-202.355878 91.261785-261.870258 15.869338-11.897639 19.841037-31.738675 7.943398-47.608013-11.915097-19.841037-35.719103-23.812735-55.56014-11.906368-107.122394 83.327116-154.739136 226.168613-111.094093 357.103743 43.645043 146.795738 186.48654 242.020493 337.262706 234.085824 154.739136-7.934669 281.702566-119.028761 309.478271-269.804928 27.775705-150.767437-51.579712-301.543602-194.421209-361.057983z" p-id="841" fill="#1296db"></path></svg>